<svg width="215" height="71" viewBox="0 0 215 71" fill="none" xmlns="http://www.w3.org/2000/svg">
<path d="M6.28229 61.1645C6.28229 61.9503 5.86465 62.3679 5.07892 62.3679H1.20337C0.417639 62.3679 0 61.9503 0 61.1645V28.801C0 28.0153 0.417639 27.5976 1.20337 27.5976H5.07892C5.86465 27.5976 6.28229 28.0153 6.28229 28.801V42.8344L16.964 28.3303C17.3285 27.8064 17.7497 27.5976 18.4292 27.5976H23.0905C24.1382 27.5976 24.4532 28.2807 23.8232 29.0664L11.7258 44.6182L24.4001 60.9026C25.0265 61.6884 24.7151 62.3714 23.6674 62.3714H18.6416C17.962 62.3714 17.5409 62.1626 17.1763 61.6388L6.28229 46.9754V61.1645Z" fill="white"/>
<path d="M45.7138 46.0835V53.0489C45.7138 59.4373 42.1002 62.9979 35.4498 62.9979C29.1144 62.9979 25.7096 60.0638 25.7096 54.7229C25.7096 49.644 29.0082 46.763 35.1348 46.763H40.0049V46.5011C40.0049 42.3636 38.3804 40.6365 34.7667 40.6365C33.0926 40.6365 31.4681 41.316 30.1585 42.3106C29.5285 42.7813 28.9552 42.7282 28.4809 42.0486L27.0687 39.8472C26.6511 39.2207 26.7006 38.6438 27.3306 38.1695C29.6878 36.4955 32.2538 35.7097 35.2905 35.7097C41.994 35.7168 45.7138 39.2243 45.7138 46.0835ZM40.0049 52.5781V51.0067H35.9205C33.0926 51.0067 31.415 52.2631 31.415 54.5672C31.415 56.8713 32.8803 58.0747 35.4463 58.0747C38.5892 58.0747 40.0049 56.2944 40.0049 52.5781Z" fill="white"/>
<path d="M65.9765 60.6407C66.1853 61.3203 66.0296 61.8972 65.35 62.2122C64.1962 62.736 62.6778 62.9979 60.9506 62.9979C55.086 62.9979 52.1519 60.0143 52.1519 54.1496V41.2665H49.954C49.1682 41.2665 48.7506 40.8488 48.7506 40.0631V37.5502C48.7506 36.7645 49.1682 36.3468 49.954 36.3468H52.1519V30.7441C52.1519 29.9584 52.5695 29.5372 53.3553 29.5372H56.6539C57.4396 29.5372 57.8573 29.9548 57.8573 30.7441V36.3468H64.1927C64.9784 36.3468 65.396 36.7645 65.396 37.5502V40.0631C65.396 40.8488 64.9784 41.2665 64.1927 41.2665H57.8573V54.1496C57.8573 56.7156 59.1668 58.0747 61.6267 58.0747C62.3593 58.0747 63.0919 57.919 63.7715 57.6571C64.5041 57.3952 65.081 57.5509 65.2899 58.3402L65.9765 60.6407Z" fill="white"/>
<path d="M88.4405 46.0835V53.0489C88.4405 59.4373 84.8269 62.9979 78.1765 62.9979C71.8411 62.9979 68.4363 60.0638 68.4363 54.7229C68.4363 49.644 71.7349 46.763 77.8615 46.763H82.7316V46.5011C82.7316 42.3636 81.107 40.6365 77.4934 40.6365C75.8193 40.6365 74.1947 41.316 72.8852 42.3106C72.2552 42.7813 71.6818 42.7282 71.2076 42.0486L69.7954 39.8472C69.3777 39.2207 69.4273 38.6438 70.0573 38.1695C72.4145 36.4955 74.9805 35.7097 78.0172 35.7097C84.7242 35.7168 88.4405 39.2243 88.4405 46.0835ZM82.7351 52.5781V51.0067H78.6508C75.8228 51.0067 74.1452 52.2631 74.1452 54.5672C74.1452 56.8713 75.6105 58.0747 78.1765 58.0747C81.3194 58.0747 82.7351 56.2944 82.7351 52.5781Z" fill="white"/>
<path d="M114.048 45.6658V53.0488C114.048 59.4904 110.802 62.9979 104.884 62.9979C102.58 62.9979 100.747 62.3183 99.4903 60.9557H99.3841V69.5421C99.3841 70.3278 98.9665 70.7454 98.1807 70.7454H94.8821C94.0964 70.7454 93.6787 70.3278 93.6787 69.5421V45.6658C93.6787 39.2773 97.2393 35.7168 103.837 35.7168C110.434 35.7168 114.048 39.2773 114.048 45.6658ZM108.339 46.1366C108.339 42.4203 106.926 40.6364 103.837 40.6364C100.853 40.6364 99.3841 42.4167 99.3841 46.1366V52.6277C99.3841 56.2413 100.902 58.0747 103.837 58.0747C106.926 58.0747 108.339 56.2944 108.339 52.6277V46.1366Z" fill="white"/>
<path d="M138.922 53.3638C138.922 59.5966 135.467 62.9979 129.129 62.9979C122.74 62.9979 119.286 59.593 119.286 53.3638V37.5502C119.286 36.7644 119.703 36.3468 120.489 36.3468H123.788C124.573 36.3468 124.991 36.7644 124.991 37.5502V53.1019C124.991 56.5068 126.301 58.0782 129.182 58.0782C132.063 58.0782 133.369 56.5068 133.369 53.1019V37.5502C133.369 36.7644 133.786 36.3468 134.572 36.3468H137.715C138.501 36.3468 138.918 36.7644 138.918 37.5502V53.3638H138.922Z" fill="white"/>
<path d="M146.199 62.3714C145.413 62.3714 144.995 61.9538 144.995 61.1681V26.9216C144.995 26.1359 145.413 25.7182 146.199 25.7182H149.497C150.283 25.7182 150.701 26.1359 150.701 26.9216V61.1681C150.701 61.9538 150.283 62.3714 149.497 62.3714H146.199Z" fill="white"/>
<path d="M171.961 60.6407C172.17 61.3203 172.015 61.8972 171.335 62.2122C170.185 62.736 168.663 62.9979 166.936 62.9979C161.071 62.9979 158.137 60.0143 158.137 54.1496V41.2665H155.939C155.153 41.2665 154.736 40.8488 154.736 40.0631V37.5502C154.736 36.7645 155.153 36.3468 155.939 36.3468H158.137V30.7441C158.137 29.9584 158.554 29.5372 159.34 29.5372H162.639C163.425 29.5372 163.842 29.9548 163.842 30.7441V36.3468H170.178C170.963 36.3468 171.381 36.7645 171.381 37.5502V40.0631C171.381 40.8488 170.963 41.2665 170.178 41.2665H163.842V54.1496C163.842 56.7156 165.152 58.0747 167.612 58.0747C168.344 58.0747 169.077 57.919 169.76 57.6571C170.493 57.3952 171.069 57.5509 171.278 58.3402L171.961 60.6407Z" fill="white"/>
<path d="M181.114 41.6027C179.465 41.6027 178.127 40.2648 178.127 38.6155V9.05512C178.127 7.4058 179.465 6.06793 181.114 6.06793C182.763 6.06793 184.101 7.4058 184.101 9.05512V38.6155C184.101 40.2648 182.763 41.6027 181.114 41.6027Z" fill="#EA0A8C"/>
<path d="M212.009 44.9757C211.248 44.9757 210.49 44.6855 209.906 44.1121L187.584 22.055C186.427 20.9048 186.402 19.0395 187.531 17.8645L203.79 0.918222C204.934 -0.270989 206.824 -0.309922 208.016 0.829739C209.206 1.97294 209.248 3.86294 208.105 5.05569L193.88 19.8784L214.115 39.8649C215.286 41.0258 215.297 42.9193 214.136 44.0908C213.548 44.6819 212.78 44.9757 212.009 44.9757Z" fill="#EA0A8C"/>
<path d="M204.017 22.8443C203.274 22.8443 202.527 22.5682 201.95 22.0126C200.761 20.8694 200.722 18.9794 201.865 17.7866L209.241 9.97178C210.384 8.78257 212.274 8.74364 213.467 9.8833C214.656 11.0265 214.695 12.9165 213.555 14.1092L206.176 21.9241C205.588 22.5364 204.803 22.8443 204.017 22.8443Z" fill="#EA0A8C"/>
<path d="M201.805 42.1159L192.5 32.942C191.955 32.404 191.233 32.1208 190.5 32.1208C190.129 32.1208 189.754 32.1952 189.396 32.3438C188.331 32.7862 187.644 33.8197 187.644 34.9735V53.3674C187.644 54.9388 188.925 56.2201 190.497 56.2201C192.068 56.2201 193.349 54.9388 193.349 53.3674V41.7938L197.798 46.179C198.92 47.2833 200.729 47.2727 201.833 46.1507C202.368 45.6092 202.661 44.8907 202.654 44.1298C202.651 43.3653 202.346 42.6503 201.805 42.1159Z" fill="#EA0A8C"/>
</svg>
