<svg width="165" height="34" viewBox="0 0 165 34" fill="none" xmlns="http://www.w3.org/2000/svg">
<path fill-rule="evenodd" clip-rule="evenodd" d="M0.439314 3.70334C1.20811 1.86371 3.13011 0.545764 5.13448 0.545764C20.2634 0.545764 35.3923 0.545764 50.5486 0.545764C51.8665 0.518307 53.1845 1.01254 54.1455 1.89117C55.2438 2.87963 55.8753 4.36231 55.8478 5.845C55.8478 11.6385 55.8478 17.4319 55.8478 23.2528C55.8204 25.8613 53.5414 28.2226 50.933 28.2775C45.4141 28.3049 39.8952 28.2775 34.3763 28.2775C35.1177 30.1171 35.859 31.9293 36.6004 33.7689C33.3055 31.9567 30.0656 30.0897 26.7433 28.3049C19.4946 28.25 12.2184 28.3049 4.94228 28.2775C2.33386 28.1951 0.0549144 25.8613 0.0274572 23.2528C1.04332e-07 17.5692 0.0274571 11.8856 0 6.2294C0 5.37822 0.0823715 4.49959 0.439314 3.70334Z" fill="#945C87"/>
<path fill-rule="evenodd" clip-rule="evenodd" d="M22.6247 4.11519C23.4484 3.23656 25.0409 3.51113 25.6724 4.52705C26.0019 5.04873 26.0294 5.76262 25.7548 6.31176C24.6016 8.61816 24.1074 11.1717 23.6681 13.6703C23.1464 16.9377 22.7071 20.26 22.8718 23.5823C22.9267 24.4335 22.5149 25.4494 21.6088 25.669C20.7576 25.8612 19.9614 25.2847 19.4122 24.6806C16.9411 22.0173 15.5408 18.5851 14.5248 15.153C13.5089 17.1573 12.493 19.1892 11.5046 21.1935C10.8181 22.5664 10.0768 23.9667 8.9785 25.065C8.51173 25.5318 7.71547 25.9436 7.11142 25.4769C6.20533 24.6806 5.98568 23.4176 5.60127 22.3467C4.14605 17.3221 3.32233 12.1327 2.47116 6.97074C2.27896 6.11957 2.6359 5.0762 3.48707 4.74671C4.1735 4.4996 5.07959 4.44468 5.65619 4.96636C6.06805 5.32331 6.17788 5.89991 6.26025 6.4216C6.8643 10.4303 7.55073 14.4116 8.53919 18.338C10.1866 15.2079 11.834 12.0778 13.4815 8.92019C13.7286 8.45342 14.0306 7.98665 14.4699 7.71208C15.074 7.32768 15.9526 7.35514 16.4743 7.90428C16.8862 8.3436 17.0509 8.97511 17.1607 9.55171C17.655 12.1327 18.3139 14.7136 19.2749 17.1573C19.6868 13.4506 20.2085 9.68899 21.5539 6.20193C21.8559 5.46059 22.1305 4.71925 22.6247 4.11519ZM31.9327 6.11957C33.7174 5.89991 35.6394 6.50396 36.8475 7.84936C37.836 8.97511 38.3851 10.4303 38.5773 11.8856C38.8793 14.3842 38.4126 17.02 37.2044 19.2441C36.518 20.5071 35.6394 21.7427 34.3764 22.484C32.5367 23.6098 30.0656 23.4725 28.2809 22.2918C26.8531 21.3034 26.0568 19.6559 25.7274 18.0085C25.0684 14.2469 26.1941 10.0734 29.0222 7.46496C29.8459 6.72362 30.8618 6.25685 31.9327 6.11957ZM32.2896 9.96357C31.4384 10.2381 30.8893 11.0344 30.4225 11.7483C29.2693 13.6154 28.9398 16.0591 29.8734 18.0634C30.1205 18.5851 30.5049 19.1617 31.1364 19.2715C31.7954 19.3814 32.3994 18.997 32.8662 18.5851C33.9096 17.679 34.4313 16.3336 34.7058 14.9882C34.9804 13.4781 34.8431 11.8032 33.9645 10.4853C33.6076 9.99102 32.8937 9.77137 32.2896 9.96357ZM46.1829 6.11957C47.9127 5.89991 49.8073 6.44905 51.0154 7.73954C52.1137 8.92019 52.6903 10.4852 52.855 12.0778C53.1021 14.494 52.6628 17.0201 51.5096 19.1617C50.8232 20.4522 49.9171 21.7152 48.5992 22.484C46.8419 23.5549 44.4806 23.445 42.7233 22.4016C41.5427 21.6878 40.7464 20.4797 40.2796 19.1892C39.0441 15.2628 40.0874 10.65 42.943 7.68462C43.8765 6.8609 45.0023 6.25685 46.1829 6.11957ZM46.5673 9.96357C45.6338 10.2931 45.0846 11.1991 44.5904 11.9954C43.547 13.835 43.2725 16.2238 44.2335 18.1733C44.4806 18.7224 44.9474 19.2441 45.5789 19.2715C46.2653 19.299 46.8694 18.8597 47.3636 18.3929C48.4344 17.3495 48.9012 15.8668 49.0659 14.4116C49.2307 13.0662 49.011 11.611 48.2148 10.4578C47.8853 9.99102 47.1714 9.77137 46.5673 9.96357Z" fill="white"/>
<path fill-rule="evenodd" clip-rule="evenodd" d="M65.2382 6.64124C66.7483 6.31176 68.3408 6.33922 69.851 6.69616C69.851 7.93173 69.851 9.1673 69.851 10.4029C68.6154 10.1008 67.2151 9.82628 66.0344 10.4029C64.6067 11.1168 63.8104 12.7367 63.8104 14.2743C63.728 15.8119 64.2497 17.5417 65.6226 18.4204C66.8856 19.2441 68.5056 19.0793 69.8784 18.6949C69.8784 19.9305 69.8784 21.1661 69.8784 22.4016C68.0388 22.9233 66.0344 22.8684 64.2497 22.2094C62.1081 21.4132 60.4057 19.5461 59.7467 17.3495C59.2525 15.6746 59.1976 13.8899 59.582 12.1876C60.2135 9.46933 62.5199 7.2453 65.2382 6.64124ZM76.3858 6.44904C78.2529 6.22938 80.2847 6.53141 81.7948 7.71207C83.2501 8.83781 83.9639 10.6774 84.2385 12.4347C84.4856 14.3842 84.4307 16.416 83.8267 18.2831C83.305 19.8756 82.2341 21.3583 80.6965 22.0996C79.1315 22.841 77.2919 22.8959 75.617 22.5115C74.0794 22.1545 72.7065 21.1386 71.9377 19.7383C70.8669 17.8712 70.6747 15.6472 70.7571 13.533C70.8394 11.7208 71.3062 9.82627 72.5143 8.42596C73.5028 7.30022 74.9305 6.61378 76.3858 6.44904ZM76.9624 9.99102C76.1661 10.1832 75.6993 10.9795 75.5071 11.7208C75.1227 13.2035 75.1777 14.7411 75.2875 16.2512C75.3973 17.075 75.4797 17.9536 76.0563 18.6126C76.8251 19.4912 78.3901 19.3814 79.0766 18.4753C79.5433 17.8987 79.6806 17.1573 79.763 16.4434C79.9277 15.1804 79.9552 13.8899 79.763 12.6269C79.6257 11.8581 79.4061 11.0618 78.8569 10.4852C78.3627 9.99102 77.6213 9.82628 76.9624 9.99102ZM150.191 6.69616C151.783 6.2843 153.458 6.33922 155.05 6.6687C155.078 7.90427 155.05 9.13985 155.078 10.4029C153.87 10.1008 152.524 9.82627 151.344 10.348C149.971 10.9795 149.147 12.4347 149.037 13.8899C148.873 15.5374 149.312 17.4044 150.767 18.3654C152.03 19.2441 153.678 19.0793 155.078 18.6675C155.05 19.903 155.105 21.1661 155.05 22.4016C153.101 22.8959 150.959 22.841 149.12 22.0447C147.088 21.1661 145.495 19.299 144.919 17.1573C144.479 15.5099 144.425 13.7526 144.836 12.0778C145.44 9.49678 147.61 7.38259 150.191 6.69616ZM86.6822 6.80599C88.4395 6.80599 90.2242 6.80599 91.9814 6.80599C92.6129 9.66153 93.217 12.5445 93.7661 15.4275C94.2604 12.5171 94.9468 9.66153 95.6332 6.80599C97.4454 6.80599 99.2576 6.80599 101.07 6.80599C101.784 11.9954 102.47 17.1848 103.156 22.3467C101.784 22.3467 100.383 22.3467 99.0105 22.3467C98.6261 18.8048 98.2966 15.2353 97.8847 11.6934C97.0335 15.2353 96.1549 18.8048 95.3037 22.3467C94.3702 22.3467 93.4092 22.3467 92.4757 22.3467C91.5696 18.8048 90.6909 15.2353 89.7574 11.6659C89.4005 15.2079 89.0435 18.7773 88.6866 22.3467C87.3686 22.3467 86.0507 22.3467 84.7053 22.3467C85.3643 17.1848 86.0232 11.9954 86.6822 6.80599ZM105.683 6.80599C107.44 6.80599 109.225 6.80599 110.982 6.80599C111.613 9.66153 112.217 12.5445 112.766 15.4275C113.288 12.5445 113.947 9.66153 114.634 6.80599H120.043C120.757 11.9954 121.443 17.1848 122.129 22.3467C120.757 22.3467 119.356 22.3467 117.983 22.3467C117.599 18.8048 117.242 15.2353 116.858 11.6934C116.006 15.2353 115.155 18.8048 114.277 22.3467C113.343 22.3467 112.382 22.3467 111.449 22.3467C110.542 18.7773 109.636 15.2353 108.73 11.6659C108.373 15.2353 108.016 18.7773 107.659 22.3467C106.342 22.3467 105.024 22.3467 103.678 22.3467C104.365 17.1848 105.024 11.9954 105.683 6.80599ZM123.337 6.8609C126.166 6.80598 129.021 6.8609 131.849 6.83345C131.849 7.93173 131.849 9.03001 131.849 10.1558C130.421 10.1832 128.994 10.1558 127.566 10.1558C127.566 11.1168 127.566 12.0503 127.566 13.0113C128.801 13.0113 130.037 13.0113 131.273 13.0113C131.273 14.0821 131.273 15.153 131.273 16.2238C130.037 16.2238 128.801 16.2238 127.566 16.2238C127.566 17.1573 127.566 18.1183 127.566 19.0793C128.994 19.0793 130.449 19.0793 131.877 19.0793C131.877 20.1776 131.877 21.2759 131.877 22.4016C129.049 22.4016 126.193 22.4016 123.365 22.4016C123.337 17.2122 123.392 12.0503 123.337 6.8609ZM133.057 6.80599C134.842 6.80599 136.599 6.77853 138.384 6.80599C140.059 6.8609 141.844 7.27276 143.079 8.45342C144.205 9.49679 144.589 11.2266 144.15 12.6818C143.793 13.8625 142.914 14.8235 141.816 15.3452C142.914 17.679 144.04 20.0129 145.166 22.3467C143.683 22.3467 142.201 22.3467 140.745 22.3467C139.592 19.958 138.466 17.5692 137.286 15.2079C137.258 17.5966 137.286 19.9854 137.286 22.3467C135.885 22.3467 134.485 22.3467 133.085 22.3467C133.057 17.1848 133.057 11.9954 133.057 6.80599ZM137.258 9.79882C137.258 11.0344 137.258 12.27 137.258 13.5055C138.027 13.4506 138.851 13.4232 139.482 12.9564C140.224 12.4072 140.141 11.2815 139.674 10.5676C139.098 9.88118 138.082 9.88119 137.258 9.79882ZM156.259 6.83345C159.087 6.83345 161.915 6.83345 164.743 6.83345C164.743 7.93173 164.743 9.05747 164.743 10.1558C163.315 10.1558 161.86 10.1558 160.432 10.1558C160.432 11.1168 160.432 12.0503 160.432 13.0113C161.668 13.0113 162.903 13.0113 164.139 13.0113C164.139 14.0821 164.139 15.153 164.139 16.2238H160.432C160.432 17.1848 160.432 18.1183 160.432 19.0793C161.887 19.0793 163.315 19.0793 164.77 19.0793C164.77 20.1776 164.77 21.2759 164.77 22.4016C161.942 22.4016 159.087 22.4016 156.259 22.4016C156.231 17.1848 156.259 11.9954 156.259 6.83345Z" fill="black"/>
</svg>
